<mxfile host="app.diagrams.net" modified="2022-04-14T12:53:09.699Z" agent="5.0 (Macintosh; Intel Mac OS X 10_15_7) AppleWebKit/537.36 (KHTML, like Gecko) Chrome/100.0.4896.75 Safari/537.36" etag="-QBMq_W7Kp0wnGY9a3sT" version="17.4.2" type="github">
  <diagram id="yPxyJZ8AM_hMuL3Unpa9" name="complex gitflow">
    <mxGraphModel dx="1226" dy="1160" grid="1" gridSize="10" guides="1" tooltips="1" connect="1" arrows="1" fold="1" page="1" pageScale="1" pageWidth="1100" pageHeight="850" math="0" shadow="0">
      <root>
        <mxCell id="0" />
        <mxCell id="1" parent="0" />
        <mxCell id="eCYRD0nzbmsftBlFa7IY-42" value="CI/CD Pipelines" style="rounded=0;whiteSpace=wrap;html=1;fontSize=14;strokeWidth=2;fillColor=#f5f5f5;fontColor=#333333;strokeColor=#666666;gradientColor=#E6E6E6;gradientDirection=east;align=right;verticalAlign=top;" vertex="1" parent="1">
          <mxGeometry x="220" y="140" width="670" height="160" as="geometry" />
        </mxCell>
        <mxCell id="eCYRD0nzbmsftBlFa7IY-5" style="edgeStyle=orthogonalEdgeStyle;rounded=0;orthogonalLoop=1;jettySize=auto;html=1;exitX=0.5;exitY=1;exitDx=0;exitDy=0;exitPerimeter=0;entryX=0.5;entryY=0;entryDx=0;entryDy=0;" edge="1" parent="1" source="eCYRD0nzbmsftBlFa7IY-2" target="eCYRD0nzbmsftBlFa7IY-3">
          <mxGeometry relative="1" as="geometry" />
        </mxCell>
        <mxCell id="eCYRD0nzbmsftBlFa7IY-9" style="edgeStyle=orthogonalEdgeStyle;rounded=0;orthogonalLoop=1;jettySize=auto;html=1;exitX=0.5;exitY=1;exitDx=0;exitDy=0;exitPerimeter=0;entryX=0.5;entryY=0;entryDx=0;entryDy=0;" edge="1" parent="1" source="eCYRD0nzbmsftBlFa7IY-2" target="eCYRD0nzbmsftBlFa7IY-6">
          <mxGeometry relative="1" as="geometry" />
        </mxCell>
        <mxCell id="eCYRD0nzbmsftBlFa7IY-2" value="Upstream&lt;br style=&quot;font-size: 14px;&quot;&gt;Git Repo" style="shape=cylinder3;whiteSpace=wrap;html=1;boundedLbl=1;backgroundOutline=1;size=15;fillColor=#f8cecc;strokeColor=#b85450;strokeWidth=2;fontSize=14;" vertex="1" parent="1">
          <mxGeometry x="393.25" y="30" width="80" height="90" as="geometry" />
        </mxCell>
        <mxCell id="eCYRD0nzbmsftBlFa7IY-3" value="OSS Introduction" style="rounded=1;whiteSpace=wrap;html=1;arcSize=23;strokeWidth=2;fillColor=#ffe6cc;strokeColor=#d79b00;fontSize=14;" vertex="1" parent="1">
          <mxGeometry x="252.25" y="200" width="117.75" height="60" as="geometry" />
        </mxCell>
        <mxCell id="eCYRD0nzbmsftBlFa7IY-6" value="OSS Storage" style="rounded=1;whiteSpace=wrap;html=1;strokeWidth=2;fillColor=#ffe6cc;strokeColor=#d79b00;fontSize=14;" vertex="1" parent="1">
          <mxGeometry x="492.25" y="200" width="117.75" height="60" as="geometry" />
        </mxCell>
        <mxCell id="eCYRD0nzbmsftBlFa7IY-7" value="OSS Consumption" style="rounded=1;whiteSpace=wrap;html=1;strokeWidth=2;fillColor=#ffe6cc;strokeColor=#d79b00;fontSize=14;" vertex="1" parent="1">
          <mxGeometry x="732.25" y="200" width="118.5" height="60" as="geometry" />
        </mxCell>
        <mxCell id="eCYRD0nzbmsftBlFa7IY-16" value="" style="shape=mxgraph.cisco.people.androgenous_person;html=1;pointerEvents=1;dashed=0;fillColor=#036897;strokeColor=#ffffff;strokeWidth=2;verticalLabelPosition=bottom;verticalAlign=top;align=center;outlineConnect=0;fontSize=14;" vertex="1" parent="1">
          <mxGeometry x="50" y="189" width="69" height="82" as="geometry" />
        </mxCell>
        <mxCell id="eCYRD0nzbmsftBlFa7IY-19" value="" style="endArrow=classic;html=1;rounded=0;fontSize=14;exitX=1;exitY=0.5;exitDx=0;exitDy=0;exitPerimeter=0;entryX=0;entryY=0.5;entryDx=0;entryDy=0;dashed=1;" edge="1" parent="1" source="eCYRD0nzbmsftBlFa7IY-16" target="eCYRD0nzbmsftBlFa7IY-3">
          <mxGeometry relative="1" as="geometry">
            <mxPoint x="441.25" y="580" as="sourcePoint" />
            <mxPoint x="541.25" y="580" as="targetPoint" />
          </mxGeometry>
        </mxCell>
        <mxCell id="eCYRD0nzbmsftBlFa7IY-20" value="Use&lt;br&gt;OSS" style="edgeLabel;resizable=0;html=1;align=center;verticalAlign=middle;fontSize=14;strokeWidth=2;" connectable="0" vertex="1" parent="eCYRD0nzbmsftBlFa7IY-19">
          <mxGeometry relative="1" as="geometry">
            <mxPoint x="-16" as="offset" />
          </mxGeometry>
        </mxCell>
        <mxCell id="eCYRD0nzbmsftBlFa7IY-24" value="" style="shape=mxgraph.cisco.people.androgenous_person;html=1;pointerEvents=1;dashed=0;fillColor=#036897;strokeColor=#ffffff;strokeWidth=2;verticalLabelPosition=bottom;verticalAlign=top;align=center;outlineConnect=0;fontSize=14;flipV=0;flipH=1;" vertex="1" parent="1">
          <mxGeometry x="1000" y="189" width="69" height="82" as="geometry" />
        </mxCell>
        <mxCell id="eCYRD0nzbmsftBlFa7IY-27" value="Trusted&lt;br&gt;Git Repo" style="shape=cylinder3;whiteSpace=wrap;html=1;boundedLbl=1;backgroundOutline=1;size=15;fillColor=#d5e8d4;strokeColor=#82b366;strokeWidth=2;fontSize=14;" vertex="1" parent="1">
          <mxGeometry x="630" y="335" width="80" height="90" as="geometry" />
        </mxCell>
        <mxCell id="eCYRD0nzbmsftBlFa7IY-35" style="edgeStyle=orthogonalEdgeStyle;rounded=0;orthogonalLoop=1;jettySize=auto;html=1;entryX=0;entryY=0.5;entryDx=0;entryDy=0;entryPerimeter=0;" edge="1" parent="1" target="eCYRD0nzbmsftBlFa7IY-27">
          <mxGeometry relative="1" as="geometry">
            <mxPoint x="580" y="260" as="sourcePoint" />
            <mxPoint x="410" y="550" as="targetPoint" />
            <Array as="points">
              <mxPoint x="580" y="260" />
              <mxPoint x="580" y="380" />
            </Array>
          </mxGeometry>
        </mxCell>
        <mxCell id="eCYRD0nzbmsftBlFa7IY-36" style="edgeStyle=orthogonalEdgeStyle;rounded=0;orthogonalLoop=1;jettySize=auto;html=1;exitX=1;exitY=0.5;exitDx=0;exitDy=0;entryX=0.25;entryY=1;entryDx=0;entryDy=0;exitPerimeter=0;" edge="1" parent="1" source="eCYRD0nzbmsftBlFa7IY-27" target="eCYRD0nzbmsftBlFa7IY-7">
          <mxGeometry relative="1" as="geometry">
            <mxPoint x="561.5" y="270" as="sourcePoint" />
            <mxPoint x="650" y="390" as="targetPoint" />
          </mxGeometry>
        </mxCell>
        <mxCell id="eCYRD0nzbmsftBlFa7IY-37" value="Trusted&lt;br&gt;Artifact Repo" style="shape=cylinder3;whiteSpace=wrap;html=1;boundedLbl=1;backgroundOutline=1;size=15;fillColor=#d5e8d4;strokeColor=#82b366;strokeWidth=2;fontSize=14;" vertex="1" parent="1">
          <mxGeometry x="900" y="335" width="80" height="90" as="geometry" />
        </mxCell>
        <mxCell id="eCYRD0nzbmsftBlFa7IY-38" style="edgeStyle=orthogonalEdgeStyle;rounded=0;orthogonalLoop=1;jettySize=auto;html=1;exitX=0.75;exitY=1;exitDx=0;exitDy=0;entryX=0;entryY=0.5;entryDx=0;entryDy=0;entryPerimeter=0;" edge="1" parent="1" source="eCYRD0nzbmsftBlFa7IY-7" target="eCYRD0nzbmsftBlFa7IY-37">
          <mxGeometry relative="1" as="geometry">
            <mxPoint x="561.5" y="270" as="sourcePoint" />
            <mxPoint x="630" y="390" as="targetPoint" />
          </mxGeometry>
        </mxCell>
        <mxCell id="eCYRD0nzbmsftBlFa7IY-39" value="Consume&lt;br style=&quot;font-size: 14px;&quot;&gt;OSS" style="edgeStyle=orthogonalEdgeStyle;rounded=0;orthogonalLoop=1;jettySize=auto;html=1;exitX=1;exitY=0.5;exitDx=0;exitDy=0;entryX=0.5;entryY=1;entryDx=0;entryDy=0;exitPerimeter=0;entryPerimeter=0;dashed=1;fontSize=14;" edge="1" parent="1" target="eCYRD0nzbmsftBlFa7IY-24">
          <mxGeometry x="0.4006" relative="1" as="geometry">
            <mxPoint x="980" y="380" as="sourcePoint" />
            <mxPoint x="1041.875" y="260" as="targetPoint" />
            <mxPoint as="offset" />
          </mxGeometry>
        </mxCell>
        <mxCell id="eCYRD0nzbmsftBlFa7IY-40" value="Policy&lt;br&gt;Engine" style="rounded=0;whiteSpace=wrap;html=1;fontSize=14;strokeWidth=2;fillColor=#d5e8d4;strokeColor=#82b366;" vertex="1" parent="1">
          <mxGeometry x="370" y="350" width="120" height="60" as="geometry" />
        </mxCell>
        <mxCell id="eCYRD0nzbmsftBlFa7IY-47" value="Policies" style="edgeStyle=orthogonalEdgeStyle;rounded=0;orthogonalLoop=1;jettySize=auto;html=1;exitX=1;exitY=0.5;exitDx=0;exitDy=0;entryX=0.25;entryY=1;entryDx=0;entryDy=0;fontSize=14;" edge="1" parent="1" source="eCYRD0nzbmsftBlFa7IY-40" target="eCYRD0nzbmsftBlFa7IY-6">
          <mxGeometry x="0.0771" relative="1" as="geometry">
            <mxPoint x="321.125" y="270" as="sourcePoint" />
            <mxPoint x="383.25" y="390" as="targetPoint" />
            <mxPoint as="offset" />
          </mxGeometry>
        </mxCell>
        <mxCell id="eCYRD0nzbmsftBlFa7IY-48" value="Policies" style="edgeStyle=orthogonalEdgeStyle;rounded=0;orthogonalLoop=1;jettySize=auto;html=1;exitX=0;exitY=0.5;exitDx=0;exitDy=0;fontSize=14;" edge="1" parent="1" source="eCYRD0nzbmsftBlFa7IY-40" target="eCYRD0nzbmsftBlFa7IY-3">
          <mxGeometry x="0.0667" relative="1" as="geometry">
            <mxPoint x="443.25" y="130" as="sourcePoint" />
            <mxPoint x="561.125" y="210" as="targetPoint" />
            <Array as="points">
              <mxPoint x="340" y="380" />
            </Array>
            <mxPoint as="offset" />
          </mxGeometry>
        </mxCell>
      </root>
    </mxGraphModel>
  </diagram>
</mxfile>
